<svg width="24" height="24" viewBox="0 0 24 24" fill="none" xmlns="http://www.w3.org/2000/svg">
<path d="M5.31658 18.9932C7.46163 18.9932 9.24917 17.3934 9.57358 15.2941H10.6262C10.8646 15.7801 11.3677 16.1176 11.9503 16.1176C12.7647 16.1176 13.4201 15.4494 13.4201 14.6258C13.4201 14.2613 13.2877 13.9238 13.0692 13.6606L16.3199 10.1167L16.5715 10.7715C15.2606 11.5207 14.3735 12.9585 14.3735 14.5988C14.3735 17.0289 16.3067 19 18.6967 19C21.0734 19 23 17.0289 23 14.5988C23 12.1688 21.0734 10.2044 18.6967 10.2044C18.3325 10.2044 17.975 10.2517 17.6374 10.3394L15.7638 5.49952C15.6314 5.14851 15.393 5 14.9759 5H12.9898C12.6654 5 12.4005 5.27001 12.4005 5.60077C12.4005 5.92478 12.6654 6.19479 12.9898 6.19479H14.7442C14.8038 6.19479 14.817 6.20829 14.8369 6.24879L15.8962 9.00289L10.0105 9.85342L9.14324 8.19961H9.8715C10.1959 8.19961 10.4541 7.93635 10.4541 7.60559C10.4541 7.27483 10.1893 7.00482 9.8715 7.00482H7.03792C6.72013 7.00482 6.45531 7.27483 6.45531 7.60559C6.45531 7.93635 6.71351 8.19961 7.03792 8.19961H7.87872L8.8056 10.0154L7.85224 11.0415C7.14385 10.5149 6.26332 10.2044 5.31658 10.2044C2.92657 10.2044 1 12.1688 1 14.5988C1 17.0289 2.93319 18.9932 5.31658 18.9932ZM11.9503 13.134C11.8775 13.134 11.8113 13.1408 11.7385 13.1475L10.5534 10.8862L14.731 10.2854L12.0629 13.134C12.0232 13.134 11.9901 13.134 11.9503 13.134ZM9.6133 14.1803C9.52723 13.2893 9.18297 12.4725 8.65995 11.8177L9.3551 11.082L10.7388 13.7821C10.6527 13.9036 10.5931 14.0386 10.5468 14.1803H9.6133ZM5.31658 17.7917C3.582 17.7917 2.19169 16.3742 2.19169 14.5988C2.19169 12.837 3.58862 11.4127 5.31658 11.4127C5.95215 11.4127 6.53476 11.6017 7.02468 11.9257L5.42251 13.6471C5.38941 13.6403 5.3563 13.6403 5.31658 13.6403C4.79356 13.6403 4.38309 14.0521 4.37647 14.5988C4.36985 15.1321 4.78694 15.5574 5.31658 15.5574C5.56816 15.5574 5.79988 15.4561 5.96539 15.2941H8.36864C8.0641 16.7252 6.81282 17.7917 5.31658 17.7917ZM18.6967 17.7917C16.9621 17.7917 15.5652 16.3742 15.5652 14.5988C15.5652 13.4716 16.1411 12.4793 17.0084 11.9122L17.8625 14.1398C17.7963 14.2748 17.7499 14.4301 17.7499 14.5988C17.7433 15.1321 18.1604 15.5574 18.6967 15.5574C19.2197 15.5574 19.6302 15.1321 19.6302 14.5988C19.6302 14.1466 19.3389 13.7753 18.9284 13.6673L18.081 11.4735C18.2796 11.433 18.4848 11.4127 18.6967 11.4127C20.418 11.4127 21.8215 12.8438 21.8215 14.5988C21.8215 16.3674 20.418 17.7917 18.6967 17.7917ZM6.43545 14.1803L7.83238 12.702C8.13692 13.1205 8.34878 13.6268 8.42161 14.1803H6.43545ZM11.957 15.1051C11.6855 15.1051 11.4737 14.8891 11.4737 14.6393C11.4737 14.3693 11.6921 14.1398 11.957 14.1398C12.2218 14.1398 12.427 14.3626 12.427 14.6393C12.427 14.8959 12.2218 15.1051 11.957 15.1051Z" fill="white" fill-opacity="0.6"/>
</svg>
