<svg width="34" height="34" viewBox="0 0 34 34" fill="none" xmlns="http://www.w3.org/2000/svg">
<path d="M9.29762 25.9918C11.9302 25.9918 14.124 24.0492 14.5221 21.5H15.814C16.1065 22.0902 16.724 22.5 17.4391 22.5C18.4385 22.5 19.2429 21.6885 19.2429 20.6885C19.2429 20.2459 19.0803 19.8361 18.8122 19.5164L22.8017 15.2131L23.1104 16.0082C21.5017 16.918 20.4129 18.6639 20.4129 20.6557C20.4129 23.6066 22.7854 26 25.7186 26C28.6356 26 31 23.6066 31 20.6557C31 17.7049 28.6356 15.3197 25.7186 15.3197C25.2717 15.3197 24.833 15.377 24.4186 15.4836L22.1192 9.60656C21.9567 9.18033 21.6642 9 21.1523 9H18.7147C18.3166 9 17.9916 9.32787 17.9916 9.72951C17.9916 10.123 18.3166 10.4508 18.7147 10.4508H20.8679C20.941 10.4508 20.9573 10.4672 20.9816 10.5164L22.2817 13.8607L15.0584 14.8934L13.994 12.8852H14.8878C15.2859 12.8852 15.6028 12.5656 15.6028 12.1639C15.6028 11.7623 15.2778 11.4344 14.8878 11.4344H11.4102C11.0202 11.4344 10.6952 11.7623 10.6952 12.1639C10.6952 12.5656 11.012 12.8852 11.4102 12.8852H12.4421L13.5796 15.0902L12.4096 16.3361C11.5402 15.6967 10.4595 15.3197 9.29762 15.3197C6.36443 15.3197 4 17.7049 4 20.6557C4 23.6066 6.37255 25.9918 9.29762 25.9918ZM17.4391 18.877C17.3497 18.877 17.2684 18.8852 17.1791 18.8934L15.7246 16.1475L20.8516 15.418L17.5772 18.877C17.5284 18.877 17.4878 18.877 17.4391 18.877ZM14.5709 20.1475C14.4652 19.0656 14.0427 18.0738 13.4008 17.2787L14.254 16.3852L15.9522 19.6639C15.8465 19.8115 15.7734 19.9754 15.7165 20.1475H14.5709ZM9.29762 24.5328C7.16882 24.5328 5.46253 22.8115 5.46253 20.6557C5.46253 18.5164 7.17695 16.7869 9.29762 16.7869C10.0776 16.7869 10.7927 17.0164 11.3939 17.4098L9.42763 19.5C9.387 19.4918 9.34637 19.4918 9.29762 19.4918C8.65573 19.4918 8.15197 19.9918 8.14385 20.6557C8.13572 21.3033 8.64761 21.8197 9.29762 21.8197C9.60638 21.8197 9.89076 21.6967 10.0939 21.5H13.0433C12.6696 23.2377 11.1339 24.5328 9.29762 24.5328ZM25.7186 24.5328C23.5898 24.5328 21.8754 22.8115 21.8754 20.6557C21.8754 19.2869 22.5823 18.082 23.6467 17.3934L24.6949 20.0984C24.6136 20.2623 24.5567 20.4508 24.5567 20.6557C24.5486 21.3033 25.0605 21.8197 25.7186 21.8197C26.3605 21.8197 26.8643 21.3033 26.8643 20.6557C26.8643 20.1066 26.5068 19.6557 26.003 19.5246L24.963 16.8607C25.2067 16.8115 25.4586 16.7869 25.7186 16.7869C27.8312 16.7869 29.5537 18.5246 29.5537 20.6557C29.5537 22.8033 27.8312 24.5328 25.7186 24.5328ZM10.6708 20.1475L12.3852 18.3525C12.759 18.8607 13.019 19.4754 13.1083 20.1475H10.6708ZM17.4472 21.2705C17.1141 21.2705 16.854 21.0082 16.854 20.7049C16.854 20.377 17.1222 20.0984 17.4472 20.0984C17.7722 20.0984 18.0241 20.3689 18.0241 20.7049C18.0241 21.0164 17.7722 21.2705 17.4472 21.2705Z" fill="white"/>
</svg>
