<svg width="34" height="34" viewBox="0 0 34 34" fill="none" xmlns="http://www.w3.org/2000/svg">
<path d="M6 8.89931C6 9.39157 6.41652 9.80809 6.88985 9.80809H9.85284L11.3201 19.8236C11.5284 21.253 12.2857 22.1239 13.7341 22.1239H24.753C25.1979 22.1239 25.605 21.7737 25.605 21.2719C25.605 20.7797 25.1979 20.4294 24.753 20.4294H13.9518C13.4974 20.4294 13.2134 20.117 13.1472 19.6343L12.9957 18.6497H24.8287C26.2771 18.6497 27.0439 17.7694 27.2522 16.3305L27.9621 11.5878C27.9811 11.4647 28 11.3038 28 11.1997C28 10.6411 27.6119 10.2625 26.9587 10.2625H11.7935L11.642 9.2401C11.5189 8.41652 11.1876 8 10.1368 8H6.88985C6.41652 8 6 8.41652 6 8.89931ZM12.8537 25.2195C12.8537 26.1377 13.5921 26.8761 14.5103 26.8761C15.4286 26.8761 16.167 26.1377 16.167 25.2195C16.167 24.3012 15.4286 23.5628 14.5103 23.5628C13.5921 23.5628 12.8537 24.3012 12.8537 25.2195ZM21.5912 25.2195C21.5912 26.1377 22.3391 26.8761 23.2573 26.8761C24.1756 26.8761 24.9045 26.1377 24.9045 25.2195C24.9045 24.3012 24.1756 23.5628 23.2573 23.5628C22.3391 23.5628 21.5912 24.3012 21.5912 25.2195Z" fill="white"/>
</svg>
