<svg width="24" height="24" viewBox="0 0 24 24" fill="none" xmlns="http://www.w3.org/2000/svg">
<path d="M2 3.83496C2 4.29199 2.38672 4.67871 2.82617 4.67871H5.57715L6.93945 13.9775C7.13281 15.3047 7.83594 16.1133 9.18066 16.1133H19.4111C19.8242 16.1133 20.2021 15.7881 20.2021 15.3223C20.2021 14.8652 19.8242 14.54 19.4111 14.54H9.38281C8.96094 14.54 8.69727 14.25 8.63574 13.8018L8.49512 12.8877H19.4814C20.8262 12.8877 21.5381 12.0703 21.7314 10.7344L22.3906 6.33105C22.4082 6.2168 22.4258 6.06738 22.4258 5.9707C22.4258 5.45215 22.0654 5.10059 21.459 5.10059H7.37891L7.23828 4.15137C7.12402 3.38672 6.81641 3 5.84082 3H2.82617C2.38672 3 2 3.38672 2 3.83496ZM8.36328 18.9873C8.36328 19.8398 9.04883 20.5254 9.90137 20.5254C10.7539 20.5254 11.4395 19.8398 11.4395 18.9873C11.4395 18.1348 10.7539 17.4492 9.90137 17.4492C9.04883 17.4492 8.36328 18.1348 8.36328 18.9873ZM16.4756 18.9873C16.4756 19.8398 17.1699 20.5254 18.0225 20.5254C18.875 20.5254 19.5518 19.8398 19.5518 18.9873C19.5518 18.1348 18.875 17.4492 18.0225 17.4492C17.1699 17.4492 16.4756 18.1348 16.4756 18.9873Z" fill="white" fill-opacity="0.6"/>
</svg>
