<svg width="24" height="24" viewBox="0 0 24 24" fill="none" xmlns="http://www.w3.org/2000/svg">
<path d="M6.86523 21.0459H16.2344C18.124 21.0459 19.0996 20.0527 19.0996 18.1543V10.2881H12.5078C11.4092 10.2881 10.8818 9.76074 10.8818 8.66211V2H6.86523C4.98438 2 4 2.99316 4 4.90039V18.1543C4 20.0527 4.98438 21.0459 6.86523 21.0459ZM12.6748 9.00488H19.0117C18.959 8.60059 18.6689 8.22266 18.2119 7.75684L13.4043 2.8877C12.9648 2.43945 12.5693 2.14062 12.165 2.08789V8.49512C12.1738 8.83789 12.3408 9.00488 12.6748 9.00488ZM8.13965 14.1816C7.76172 14.1816 7.48926 13.9092 7.48926 13.5576C7.48926 13.2061 7.76172 12.9336 8.13965 12.9336H14.9863C15.3467 12.9336 15.6279 13.2061 15.6279 13.5576C15.6279 13.9092 15.3467 14.1816 14.9863 14.1816H8.13965ZM8.13965 17.4775C7.76172 17.4775 7.48926 17.2051 7.48926 16.8535C7.48926 16.502 7.76172 16.2295 8.13965 16.2295H14.9863C15.3467 16.2295 15.6279 16.502 15.6279 16.8535C15.6279 17.2051 15.3467 17.4775 14.9863 17.4775H8.13965Z" fill="white" fill-opacity="0.6"/>
</svg>
