<svg width="34" height="34" viewBox="0 0 34 34" fill="none" xmlns="http://www.w3.org/2000/svg">
<path d="M11.3096 28H22.132C24.3147 28 25.4416 26.8528 25.4416 24.6599V15.5736H17.8274C16.5584 15.5736 15.9492 14.9645 15.9492 13.6954V6H11.3096C9.13706 6 8 7.14721 8 9.35025V24.6599C8 26.8528 9.13706 28 11.3096 28ZM18.0203 14.0914H25.3401C25.2792 13.6244 24.9442 13.1878 24.4162 12.6497L18.8629 7.02538C18.3553 6.50761 17.8985 6.16244 17.4315 6.10152V13.5025C17.4416 13.8985 17.6345 14.0914 18.0203 14.0914ZM12.7817 20.0711C12.3452 20.0711 12.0305 19.7563 12.0305 19.3503C12.0305 18.9442 12.3452 18.6294 12.7817 18.6294H20.6904C21.1066 18.6294 21.4315 18.9442 21.4315 19.3503C21.4315 19.7563 21.1066 20.0711 20.6904 20.0711H12.7817ZM12.7817 23.8782C12.3452 23.8782 12.0305 23.5635 12.0305 23.1574C12.0305 22.7513 12.3452 22.4365 12.7817 22.4365H20.6904C21.1066 22.4365 21.4315 22.7513 21.4315 23.1574C21.4315 23.5635 21.1066 23.8782 20.6904 23.8782H12.7817Z" fill="white"/>
</svg>
