<svg width="34" height="34" viewBox="0 0 34 34" fill="none" xmlns="http://www.w3.org/2000/svg">
<path d="M14.0674 24.5645L19.0455 27.3406C19.296 27.4763 19.5047 27.5806 19.7657 27.6433V10.3083L14.9231 7.38615C14.6101 7.19829 14.3178 7.06262 14.0674 7V24.5645ZM6 25.963C6 26.871 6.574 27.3719 7.40892 27.3719C7.71157 27.3719 8.02467 27.278 8.37951 27.0901L12.5332 24.8359V7.1148C12.3036 7.20873 12.0323 7.32353 11.7505 7.49051L7.03321 10.1727C6.32353 10.5693 6 11.1328 6 11.926V25.963ZM21.2894 27.5911C21.4146 27.5598 21.5398 27.5076 21.6546 27.4241L26.9355 24.4393C27.666 24.0323 28 23.4791 28 22.686V8.72201C28 7.7723 27.4156 7.30266 26.5285 7.30266C26.2049 7.30266 25.8605 7.39658 25.4953 7.59488L21.2894 9.93264V27.5911Z" fill="white"/>
</svg>
