<svg width="24" height="24" viewBox="0 0 24 24" fill="none" xmlns="http://www.w3.org/2000/svg">
<path d="M9.79395 17.792L13.9863 20.1299C14.1973 20.2441 14.373 20.332 14.5928 20.3848V5.78613L10.5146 3.3252C10.251 3.16699 10.0049 3.05273 9.79395 3V17.792ZM3 18.9697C3 19.7344 3.4834 20.1562 4.18652 20.1562C4.44141 20.1562 4.70508 20.0771 5.00391 19.9189L8.50195 18.0205V3.09668C8.30859 3.17578 8.08008 3.27246 7.84277 3.41309L3.87012 5.67188C3.27246 6.00586 3 6.48047 3 7.14844V18.9697ZM15.876 20.3408C15.9814 20.3145 16.0869 20.2705 16.1836 20.2002L20.6309 17.6865C21.2461 17.3438 21.5273 16.8779 21.5273 16.21V4.4502C21.5273 3.65039 21.0352 3.25488 20.2881 3.25488C20.0156 3.25488 19.7256 3.33398 19.418 3.50098L15.876 5.46973V20.3408Z" fill="white" fill-opacity="0.6"/>
</svg>
